<svg id="visual" viewBox="0 0 900 600" width="900" height="600" xmlns="http://www.w3.org/2000/svg" xmlns:xlink="http://www.w3.org/1999/xlink" version="1.1"><rect x="0" y="0" width="900" height="600" fill="#002233"></rect><path d="M0 387L21.5 409.5C43 432 86 477 128.8 498.5C171.7 520 214.3 518 257.2 497.5C300 477 343 438 385.8 437.8C428.7 437.7 471.3 476.3 514.2 488C557 499.7 600 484.3 642.8 482.5C685.7 480.7 728.3 492.3 771.2 488.8C814 485.3 857 466.7 878.5 457.3L900 448L900 601L878.5 601C857 601 814 601 771.2 601C728.3 601 685.7 601 642.8 601C600 601 557 601 514.2 601C471.3 601 428.7 601 385.8 601C343 601 300 601 257.2 601C214.3 601 171.7 601 128.8 601C86 601 43 601 21.5 601L0 601Z" fill="#0066FF" stroke-linecap="round" stroke-linejoin="miter"></path></svg>